# xmcd
#
# Track frame offsets: 
#        150
#        10957
#        27475
#        51582
#        64250
#        79422
#        100432
#        112985
#        135660
#        152700
#        175732
#        178557
#        213217
#        230787
#        246665
#
# Disc length: 3549 seconds
#
# Revision: 35
# Processed by: cddbd v1.5.2PL0 Copyright (c) Steve Scherf et al.
# Submitted via: ExactAudioCopy v1.0b3
#
DISCID=d90ddb0f
DTITLE=Vaughan, Stevie Ray And Double Trouble - Texas Flood
DYEAR=1999
DGENRE=Blues
TTITLE0=Love Struck Baby
TTITLE1=Pride And Joy
TTITLE2=Texas Flood
TTITLE3=Tell Me
TTITLE4=Testify
TTITLE5=Rude Mood
TTITLE6=Mary Had A Little Lamb
TTITLE7=Dirty Pool
TTITLE8=I'm Cryin'
TTITLE9=Lenny
TTITLE10=SRV Speaks
TTITLE11=Tin Pan Alley (Roughest Place In Town)
TTITLE12=Testify (Live)
TTITLE13=Mary Had A Little Lamb (Live)
TTITLE14=Wham! (Live)
EXTD=CD 1999 - digitally remastered, 1999\nEPIC/Legacy [Sony] - 5 0997
EXTD=49 412927\nBonus Tracks
EXTT0=
EXTT1=
EXTT2=
EXTT3=
EXTT4=
EXTT5=
EXTT6=
EXTT7=
EXTT8=
EXTT9=
EXTT10=[Bonus Track]
EXTT11=[Bonus Track]
EXTT12=[Bonus Track]
EXTT13=[Bonus Track]
EXTT14=[Bonus Track]
PLAYORDER=
